<svg id="svg" version="1.1" width="400" height="400" xmlns="http://www.w3.org/2000/svg" xmlns:xlink="http://www.w3.org/1999/xlink" style="display: block;"><g id="svgg"><path id="path0" d="M181,26.5C180.2,26.7 174.3,27.3 168,28C147.2,30 129.1,35.2 118.3,42.1L116,43.5 116,109.7L116,175.9 110.3,177.5C91.5,182.5 88.8,184 85.3,191.6L82.9,196.9 83.2,238.2C83.5,277.8 83.6,279.6 85.6,283C88.2,287.4 96.3,293 100.2,293C101.8,293 105.9,293.6 109.3,294.4C158.3,305.5 241.7,305.5 290.7,294.4C294.1,293.6 298.2,293 299.8,293C304.3,293 312.1,287.3 314.7,282C317,277.6 317,277 317,237C317,192.3 316.9,191.7 310.4,185.7C307.9,183.4 305,182.2 288.8,177.3L284,175.8 284,109.7L284,43.5 281.8,42.1C271.7,35.7 254.9,30.7 234,27.9C225.9,26.9 184.2,25.7 181,26.5M201.6,52.3C211.3,63.1 214,141.4 205,150.4C204.4,151 204,152.1 204,152.9C204,157.8 198,160.2 195.4,156.3C181.1,135 187.1,35.9 201.6,52.3M208,171.1C211.9,175.2 211.9,178.5 207.8,182.7C201.1,189.6 189,185.8 189,176.9C189,168.1 201.5,164.4 208,171.1M190.6,305.7C186.7,306.5 182.4,308 180.9,309.1C179.4,310.1 177.9,311 177.4,311C177,311 175.1,312.7 173.1,314.8C153.1,335.4 159,375.7 183.7,386.6C194.4,391.4 225,388.6 225,382.9C225,382.4 225.5,382 226,382C230.7,382 238.2,367.8 240,355.8C245.2,321.1 223,298.7 190.6,305.7M111.9,306.5C92.4,311.8 84.1,333.3 96.3,346.9C100.2,351.3 112.8,357 118.6,357C126.8,357 134.7,363 132.9,367.8C129.8,376.1 109.6,374.2 95.5,364.4C90.7,361 90,362.2 90,373L90,383 93.3,384.4C128,399.3 164.1,381.3 154.5,353.9C151.4,345.1 135.9,336 124.1,336C117.7,336 111.8,330.2 114,326C117.9,318.7 133.6,319.5 146,327.7C152.4,332 153,331.3 153,320.2L153,310.4 149.8,309.1C140.1,305.2 121.1,303.9 111.9,306.5M267.8,306.5C254.4,310.2 246.6,319.4 246.7,331.5C246.8,345.3 256.2,353.9 274.7,357C284.4,358.6 289,361.3 289,365.4C289,375.7 265.5,375.3 252.1,364.9C246.9,360.8 246,362 246,373L246,383 249.3,384.4C271.2,393.8 297.8,389.9 308,375.9C320,359.3 303.7,336.1 279.9,336C275.3,336 269.5,331.8 269.5,328.5C269.5,318.9 287.3,318.4 302.2,327.7C308.7,331.7 309,331.3 309,320.1L309,310.2 305.8,309C295.4,305.2 277,303.9 267.8,306.5M206.8,322.4C223.3,331 222.1,367 205.3,372C193,375.7 184,365.1 184,347C184,328.6 195.3,316.4 206.8,322.4" stroke="none" fill="#fff" fill-rule="evenodd"></path></g></svg>